<svg id="Capa_1" enable-background="new 0 0 512 512" height="512" viewBox="0 0 512 512" width="512" xmlns="http://www.w3.org/2000/svg"><g><g><g><path d="m369.4 76.49v401.05c0 3.26-.45 6.41-1.3 9.4-4.09 14.46-17.39 25.06-33.16 25.06h-239.78c-19.03 0-34.45-15.43-34.45-34.46v-401.05c0-19.03 15.42-34.46 34.45-34.46h239.78c19.03 0 34.46 15.43 34.46 34.46z" fill="#a1412b"/><path d="m132.73 394.716v60.854c0 17.33 14.04 31.37 31.37 31.37h204c.85-2.99 1.3-6.14 1.3-9.4v-82.824z" fill="#7f392c"/><path d="m334.941 42.034h-239.78c-19.031 0-34.455 15.424-34.455 34.455v401.053c0 19.031 15.424 34.455 34.455 34.455h239.781c19.031 0 34.455-15.424 34.455-34.455v-401.053c-.001-19.031-15.424-34.455-34.456-34.455zm-2.143 433.365h-235.494v-396.767h235.494z" fill="#db765a"/><path d="m369.4 394.72v82.82c0 3.26-.45 6.41-1.3 9.4h-204c-9.8 0-18.56-4.49-24.31-11.54h193.01v-80.68z" fill="#b55434"/><path d="m95.161 42.034c-19.029 0-34.455 15.426-34.455 34.455v219.149c0 10.106 8.193 18.299 18.299 18.299 10.106 0 18.299-8.193 18.299-18.299v-217.006h41.798c10.106 0 18.299-8.193 18.299-18.299 0-10.106-8.193-18.299-18.299-18.299z" fill="#f2886b"/><path d="m97.304 223.144v-82.649c0-10.106-8.193-18.299-18.299-18.299-10.106 0-18.299 8.193-18.299 18.299v82.649c0 10.106 8.193 18.299 18.299 18.299 10.106 0 18.299-8.193 18.299-18.299z" fill="#f79a7c"/></g><g><path d="m289.014 246.714v204.031h-124.915c-17.325 0-31.37-14.045-31.37-31.37v-162.204c0-5.775 4.682-10.457 10.457-10.457z" fill="#d8d4c9"/><path d="m289.01 246.71v204.04h-124.91c-11.88 0-22.22-6.6-27.54-16.34 26.46-35.27 42.13-79.09 42.13-126.57 0-21.26-3.14-41.78-8.99-61.13z" fill="#b5b1a4"/><path d="m195.728 419.376v-408.919c0-5.775 4.682-10.457 10.457-10.457h234.652c5.775 0 10.457 4.682 10.457 10.457v408.919c0 17.325-14.045 31.37-31.37 31.37h-255.565c17.325 0 31.369-14.045 31.369-31.37z" fill="#f1eee0"/><path d="m213.1 252.167c-9.593 0-17.37-7.777-17.37-17.37v-175.393c0-9.593 7.777-17.37 17.37-17.37 9.593 0 17.37 7.777 17.37 17.37v175.392c.001 9.594-7.776 17.371-17.37 17.371z" fill="#f9f8f2"/><path d="m451.29 10.46v408.92c0 17.32-14.04 31.37-31.37 31.37h-99.7c62.77-106.75 98.77-231.12 98.77-363.91 0-29.39-1.76-58.37-5.19-86.84h27.04c5.77 0 10.45 4.68 10.45 10.46z" fill="#e8e4d8"/><path d="m195.73 344.78h255.56v21.67h-255.56z" fill="#ffc751"/><path d="m327.904 344.78h-93.578c-5.984 0-10.835 4.851-10.835 10.835 0 5.984 4.851 10.835 10.835 10.835h93.578c5.984 0 10.835-4.851 10.835-10.835 0-5.984-4.851-10.835-10.835-10.835z" fill="#ffe059"/><path d="m451.29 10.46v70.63h-255.56v-70.63c0-5.78 4.68-10.46 10.46-10.46h234.65c5.77 0 10.45 4.68 10.45 10.46z" fill="#ffc751"/><path d="m451.29 10.46v70.63h-32.32c-.22-27.42-1.96-54.48-5.17-81.09h27.04c5.77 0 10.45 4.68 10.45 10.46z" fill="#ffaf40"/></g></g><g><g><g fill="#8f8b81"><path d="m251.009 132.32h-18.706c-4.948 0-8.959-4.011-8.959-8.959 0-4.948 4.011-8.959 8.959-8.959h18.706c4.948 0 8.959 4.011 8.959 8.959-.001 4.948-4.012 8.959-8.959 8.959z"/><path d="m306.009 160.899h-73.706c-4.948 0-8.959-4.011-8.959-8.959 0-4.948 4.011-8.959 8.959-8.959h73.706c4.948 0 8.959 4.011 8.959 8.959-.001 4.948-4.012 8.959-8.959 8.959z"/></g></g><g><g><path d="m421.837 139.355c1.226-.808 1.226-2.601 0-3.409-3.164-2.084-6.168-4.51-8.957-7.278s-5.233-5.749-7.333-8.889c-.814-1.217-2.621-1.217-3.435 0-2.1 3.14-4.544 6.121-7.333 8.889s-5.793 5.193-8.957 7.278c-1.226.808-1.226 2.601 0 3.409 3.164 2.084 6.168 4.51 8.957 7.278s5.233 5.749 7.333 8.889c.814 1.217 2.621 1.217 3.435 0 2.1-3.14 4.544-6.121 7.333-8.889s5.793-5.194 8.957-7.278z" fill="#ffaf40"/></g></g></g><g><g><g fill="#8f8b81"><path d="m251.009 208.021h-18.706c-4.948 0-8.959-4.011-8.959-8.959 0-4.948 4.011-8.959 8.959-8.959h18.706c4.948 0 8.959 4.011 8.959 8.959-.001 4.948-4.012 8.959-8.959 8.959z"/><path d="m306.009 236.6h-73.706c-4.948 0-8.959-4.011-8.959-8.959 0-4.948 4.011-8.959 8.959-8.959h73.706c4.948 0 8.959 4.011 8.959 8.959-.001 4.948-4.012 8.959-8.959 8.959z"/></g></g><g><g><path d="m421.837 215.056c1.226-.808 1.226-2.601 0-3.409-3.164-2.084-6.168-4.51-8.957-7.278s-5.233-5.749-7.333-8.889c-.814-1.217-2.621-1.217-3.435 0-2.1 3.14-4.544 6.121-7.333 8.889s-5.793 5.193-8.957 7.278c-1.226.808-1.226 2.601 0 3.409 3.164 2.084 6.168 4.51 8.957 7.278s5.233 5.749 7.333 8.889c.814 1.217 2.621 1.217 3.435 0 2.1-3.14 4.544-6.121 7.333-8.889 2.789-2.769 5.793-5.194 8.957-7.278z" fill="#ffaf40"/></g></g></g><g><g><g><path d="m251.009 283.722h-18.706c-4.948 0-8.959-4.011-8.959-8.959 0-4.948 4.011-8.959 8.959-8.959h18.706c4.948 0 8.959 4.011 8.959 8.959-.001 4.948-4.012 8.959-8.959 8.959z" fill="#8f8b81"/><path d="m306.009 312.301h-73.706c-4.948 0-8.959-4.011-8.959-8.959 0-4.948 4.011-8.959 8.959-8.959h73.706c4.948 0 8.959 4.011 8.959 8.959-.001 4.948-4.012 8.959-8.959 8.959z" fill="#8f8b81"/><g fill="#b5b1a4"><path d="m259.14 294.383h-16.15c-4.948 0-8.959 4.011-8.959 8.959 0 4.948 4.011 8.959 8.959 8.959h16.149c4.948 0 8.959-4.011 8.959-8.959.001-4.948-4.01-8.959-8.958-8.959z"/><path d="m259.14 218.682h-16.15c-4.948 0-8.959 4.011-8.959 8.959 0 4.948 4.011 8.959 8.959 8.959h16.149c4.948 0 8.959-4.011 8.959-8.959.001-4.948-4.01-8.959-8.958-8.959z"/><path d="m259.14 142.981h-16.15c-4.948 0-8.959 4.011-8.959 8.959 0 4.948 4.011 8.959 8.959 8.959h16.149c4.948 0 8.959-4.011 8.959-8.959.001-4.948-4.01-8.959-8.958-8.959z"/></g><path d="m351.009 418.538h-118.706c-4.948 0-8.959-4.011-8.959-8.959 0-4.948 4.011-8.959 8.959-8.959h118.706c4.948 0 8.959 4.011 8.959 8.959-.001 4.948-4.012 8.959-8.959 8.959z" fill="#8f8b81"/><path d="m281.558 409.579c0 4.948 4.011 8.959 8.959 8.959h28.472c4.948 0 8.959-4.011 8.959-8.959 0-4.948-4.011-8.959-8.959-8.959h-28.472c-4.948.001-8.959 4.012-8.959 8.959z" fill="#b5b1a4"/></g></g><g><g><path d="m421.837 290.757c1.226-.808 1.226-2.601 0-3.409-3.164-2.084-6.168-4.51-8.957-7.278s-5.233-5.749-7.333-8.889c-.814-1.217-2.621-1.217-3.435 0-2.1 3.14-4.544 6.121-7.333 8.889s-5.793 5.193-8.957 7.278c-1.226.808-1.226 2.601 0 3.409 3.164 2.084 6.168 4.51 8.957 7.278s5.233 5.749 7.333 8.889c.814 1.217 2.621 1.217 3.435 0 2.1-3.14 4.544-6.121 7.333-8.889s5.793-5.194 8.957-7.278z" fill="#229bff"/></g></g><g><g><path d="m421.837 410.49c1.226-.808 1.226-2.601 0-3.409-3.164-2.084-6.168-4.51-8.957-7.278s-5.233-5.749-7.333-8.889c-.814-1.217-2.621-1.217-3.435 0-2.1 3.14-4.544 6.121-7.333 8.889s-5.793 5.193-8.957 7.278c-1.226.808-1.226 2.601 0 3.409 3.164 2.084 6.168 4.51 8.957 7.278s5.233 5.749 7.333 8.889c.814 1.217 2.621 1.217 3.435 0 2.1-3.14 4.544-6.121 7.333-8.889s5.793-5.194 8.957-7.278z" fill="#229bff"/></g></g></g><path d="m375.049 58.537h-103.076c-5.523 0-10-4.477-10-10v-18.822c0-5.523 4.477-10 10-10h103.076c5.523 0 10 4.477 10 10v18.822c0 5.523-4.477 10-10 10z" fill="#f1eee0"/><path d="m451.29 344.78v21.67h-88.71c3.04-7.16 5.95-14.39 8.75-21.67z" fill="#ffaf40"/><path d="m230.47 59.4v21.69h-34.74v-21.69c0-9.59 7.78-17.37 17.37-17.37 4.8 0 9.14 1.95 12.28 5.09s5.09 7.48 5.09 12.28z" fill="#ffe059"/></g></svg>