<svg height="512pt" viewBox="-1 0 512 512.00001" width="512pt" xmlns="http://www.w3.org/2000/svg"><path d="m403.492188 451.789062h-97.523438c-4.269531 0-7.726562-3.457031-7.726562-7.726562 0-4.265625 3.457031-7.722656 7.726562-7.722656h97.523438c4.265624 0 7.726562 3.457031 7.726562 7.722656 0 4.269531-3.460938 7.726562-7.726562 7.726562zm0 0" fill="#426175"/><path d="m209.042969 451.789062h-100.957031c-4.265626 0-7.726563-3.457031-7.726563-7.726562 0-4.265625 3.460937-7.722656 7.726563-7.722656h100.960937c4.265625 0 7.722656 3.457031 7.722656 7.722656 0 4.269531-3.457031 7.726562-7.726562 7.726562zm0 0" fill="#426175"/><path d="m255.144531 417.222656c-4.265625 0-7.726562-3.457031-7.726562-7.726562v-72.796875c0-4.269531 3.460937-7.726563 7.726562-7.726563s7.726563 3.457032 7.726563 7.726563v72.796875c0 4.269531-3.460938 7.726562-7.726563 7.726562zm0 0" fill="#426175"/><path d="m312.996094 454.148438c0 31.949218-25.898438 57.851562-57.851563 57.851562-31.949219 0-57.851562-25.902344-57.851562-57.851562 0-31.953126 25.902343-57.851563 57.851562-57.851563 31.953125 0 57.851563 25.898437 57.851563 57.851563zm0 0" fill="#cdd6df"/><path d="m255.144531 464.09375c-19.671875 0-35.632812 15.871094-35.789062 35.507812 9.84375 7.765626 22.277343 12.398438 35.789062 12.398438s25.945313-4.632812 35.792969-12.398438c-.160156-19.636718-16.121094-35.507812-35.792969-35.507812zm0 0" fill="#426175"/><path d="m275.175781 444.0625c0 11.0625-8.96875 20.03125-20.03125 20.03125s-20.03125-8.96875-20.03125-20.03125 8.96875-20.03125 20.03125-20.03125 20.03125 8.96875 20.03125 20.03125zm0 0" fill="#426175"/><path d="m510.289062 454.148438c0 31.949218-25.898437 57.851562-57.851562 57.851562-31.949219 0-57.851562-25.902344-57.851562-57.851562 0-31.953126 25.902343-57.851563 57.851562-57.851563 31.953125 0 57.851562 25.898437 57.851562 57.851563zm0 0" fill="#cdd6df"/><path d="m452.4375 464.09375c-19.671875 0-35.632812 15.871094-35.789062 35.507812 9.847656 7.765626 22.277343 12.398438 35.789062 12.398438s25.945312-4.632812 35.792969-12.398438c-.160157-19.636718-16.121094-35.507812-35.792969-35.507812zm0 0" fill="#426175"/><path d="m472.46875 444.0625c0 11.0625-8.96875 20.03125-20.03125 20.03125s-20.03125-8.96875-20.03125-20.03125 8.96875-20.03125 20.03125-20.03125 20.03125 8.96875 20.03125 20.03125zm0 0" fill="#426175"/><path d="m115.703125 454.148438c0 31.949218-25.898437 57.851562-57.851563 57.851562-31.949218 0-57.851562-25.902344-57.851562-57.851562 0-31.953126 25.902344-57.851563 57.851562-57.851563 31.953126 0 57.851563 25.898437 57.851563 57.851563zm0 0" fill="#cdd6df"/><path d="m57.773438 464.09375c-19.671876-.152344-35.757813 15.589844-36.066407 35.226562 9.785157 7.839844 22.179688 12.570313 35.691407 12.675782 13.511718.109375 25.980468-4.429688 35.886718-12.113282-.003906-19.640624-15.839844-35.636718-35.511718-35.789062zm0 0" fill="#426175"/><path d="m77.960938 444.0625c0 11.0625-8.96875 20.03125-20.03125 20.03125s-20.03125-8.96875-20.03125-20.03125 8.96875-20.03125 20.03125-20.03125 20.03125 8.96875 20.03125 20.03125zm0 0" fill="#426175"/><path d="m377.570312 110.894531c-3.699218 0-7.34375.21875-10.933593.636719-.203125-61.632812-50.226563-111.53125-111.90625-111.53125-43.703125 0-81.550781 25.058594-99.976563 61.585938-64.203125 1.402343-115.820312 53.882812-115.820312 118.421874 0 65.421876 53.035156 118.457032 118.457031 118.457032h220.179687c51.796876 0 93.785157-41.988282 93.785157-93.785156 0-51.796876-41.988281-93.785157-93.785157-93.785157zm0 0" fill="#88dbfd"/><path d="m377.570312 110.894531c-3.699218 0-7.34375.21875-10.933593.636719-.203125-61.632812-50.226563-111.53125-111.90625-111.53125-24.90625 0-47.90625 8.148438-66.496094 21.910156 2.980469-.238281 5.988281-.371094 9.027344-.371094 61.679687 0 111.703125 49.898438 111.90625 111.53125 3.589843-.417968 7.234375-.636718 10.933593-.636718 51.796876 0 93.785157 41.988281 93.785157 93.785156 0 29.046875-13.207031 55.011719-33.949219 72.214844 50.703125-1.253906 91.417969-42.75 91.417969-93.753906 0-51.796876-41.988281-93.785157-93.785157-93.785157zm0 0" fill="#5abfe9"/><path d="m350.21875 207.574219h-190.144531c-7.0625 0-12.785157-5.722657-12.785157-12.78125v-43.890625c0-7.058594 5.722657-12.78125 12.785157-12.78125h190.144531c7.058594 0 12.78125 5.722656 12.78125 12.78125v43.890625c0 7.058593-5.722656 12.78125-12.78125 12.78125zm0 0" fill="#f2f2f2"/><path d="m350.21875 138.121094h-44.6875v39.972656c0 7.058594-5.722656 12.785156-12.785156 12.785156h-145.457032v3.914063c0 7.058593 5.722657 12.78125 12.785157 12.78125h190.144531c7.058594 0 12.78125-5.722657 12.78125-12.78125v-43.890625c0-7.058594-5.722656-12.78125-12.78125-12.78125zm0 0" fill="#cdd6df"/><path d="m350.21875 277.03125h-190.144531c-7.0625 0-12.785157-5.722656-12.785157-12.785156v-43.886719c0-7.058594 5.722657-12.785156 12.785157-12.785156h190.144531c7.058594 0 12.78125 5.726562 12.78125 12.785156v43.886719c0 7.0625-5.722656 12.785156-12.78125 12.785156zm0 0" fill="#f2f2f2"/><path d="m350.21875 207.574219h-44.6875v39.976562c0 7.058594-5.722656 12.78125-12.785156 12.78125h-145.457032v3.914063c0 7.0625 5.722657 12.785156 12.785157 12.785156h190.144531c7.058594 0 12.78125-5.722656 12.78125-12.785156v-43.886719c0-7.058594-5.722656-12.785156-12.78125-12.785156zm0 0" fill="#cdd6df"/><path d="m350.21875 346.484375h-190.144531c-7.0625 0-12.785157-5.722656-12.785157-12.78125v-43.886719c0-7.0625 5.722657-12.785156 12.785157-12.785156h190.144531c7.058594 0 12.78125 5.722656 12.78125 12.785156v43.886719c0 7.058594-5.722656 12.78125-12.78125 12.78125zm0 0" fill="#f2f2f2"/><path d="m350.21875 277.03125h-44.6875v39.972656c0 7.058594-5.722656 12.78125-12.785156 12.78125h-145.457032v3.917969c0 7.058594 5.722657 12.78125 12.785157 12.78125h190.144531c7.058594 0 12.78125-5.722656 12.78125-12.78125v-43.890625c0-7.058594-5.722656-12.78125-12.78125-12.78125zm0 0" fill="#cdd6df"/><g fill="#fd715c"><path d="m190.800781 170.769531c0 5.167969-4.1875 9.351563-9.351562 9.351563-5.164063 0-9.351563-4.183594-9.351563-9.351563 0-5.164062 4.1875-9.351562 9.351563-9.351562 5.164062 0 9.351562 4.1875 9.351562 9.351562zm0 0"/><path d="m227.792969 170.769531c0 5.167969-4.1875 9.351563-9.351563 9.351563-5.167968 0-9.351562-4.183594-9.351562-9.351563 0-5.164062 4.183594-9.351562 9.351562-9.351562 5.164063 0 9.351563 4.1875 9.351563 9.351562zm0 0"/><path d="m190.800781 242.304688c0 5.164062-4.1875 9.351562-9.351562 9.351562-5.164063 0-9.351563-4.1875-9.351563-9.351562 0-5.167969 4.1875-9.355469 9.351563-9.355469 5.164062 0 9.351562 4.1875 9.351562 9.355469zm0 0"/><path d="m227.792969 242.304688c0 5.164062-4.1875 9.351562-9.351563 9.351562-5.167968 0-9.351562-4.1875-9.351562-9.351562 0-5.167969 4.183594-9.355469 9.351562-9.355469 5.164063 0 9.351563 4.1875 9.351563 9.355469zm0 0"/><path d="m190.800781 311.757812c0 5.164063-4.1875 9.351563-9.351562 9.351563-5.164063 0-9.351563-4.1875-9.351563-9.351563 0-5.164062 4.1875-9.351562 9.351563-9.351562 5.164062 0 9.351562 4.1875 9.351562 9.351562zm0 0"/><path d="m227.792969 311.757812c0 5.164063-4.1875 9.351563-9.351563 9.351563-5.167968 0-9.351562-4.1875-9.351562-9.351563 0-5.164062 4.183594-9.351562 9.351562-9.351562 5.164063 0 9.351563 4.1875 9.351563 9.351562zm0 0"/></g></svg>