<svg id="Layer_1" enable-background="new 0 0 510 510" height="512" viewBox="0 0 510 510" width="512" xmlns="http://www.w3.org/2000/svg"><g><g><path d="m174.61 300c-20.58 0-40.56 6.95-56.69 19.72l-110.09 85.797v104.483h53.529l76.471-65h126.82v-145z" fill="#ffddce"/></g><path d="m502.17 284.72c0 8.95-3.6 17.89-10.78 24.46l-148.56 135.82h-78.18v-85h68.18l114.34-100.21c12.82-11.23 32.06-10.92 44.5.73 7 6.55 10.5 15.38 10.5 24.2z" fill="#ffccbd"/><path d="m332.83 349.63v10.37h-68.18v-60h18.55c27.41 0 49.63 22.22 49.63 49.63z" fill="#ffccbd"/><path d="m399.8 77.3v8.01c0 20.65-8.04 40.07-22.64 54.67l-112.51 112.51v-226.66l3.18-3.19c14.6-14.6 34.02-22.64 54.67-22.64 42.62 0 77.3 34.68 77.3 77.3z" fill="#d00050"/><path d="m264.65 25.83v226.66l-112.51-112.51c-14.6-14.6-22.64-34.02-22.64-54.67v-8.01c0-42.62 34.68-77.3 77.3-77.3 20.65 0 40.06 8.04 54.66 22.64z" fill="#ff4a4a"/><path d="m212.83 360.12v30h51.82v-30z" fill="#ffccbd"/><path d="m264.65 360.12v30h36.14l32.04-30z" fill="#ffbda9"/></g></svg>