<svg id="Capa_1" enable-background="new 0 0 512 512" height="512" viewBox="0 0 512 512" width="512" xmlns="http://www.w3.org/2000/svg"><g><g id="Like_1_"><g><path d="m298.363 140.292-42.363-15.659-42.363 15.659 1.846-45.103-28.008-35.42 43.477-12.217 25.048-37.573 25.049 37.573 43.477 12.217-28.008 35.42z" fill="#ffdf40"/></g><g><path d="m110.863 140.292-42.363-15.659-42.363 15.659 1.846-45.103-27.983-35.419 43.451-12.217 25.049-37.574 25.049 37.573 43.477 12.217-28.008 35.42z" fill="#ffdf40"/></g><g><path d="m485.863 140.292-42.363-15.659-42.363 15.659 1.846-45.103-28.008-35.42 43.477-12.217 25.048-37.573 25.049 37.573 43.451 12.218-27.982 35.42z" fill="#ffbe40"/></g></g><g><path d="m91 322.021v180h105l30-88.515-30-91.485z" fill="#00d5ff"/></g><path d="m91 502.021h105l30-88.516-.487-1.484h-134.513z" fill="#0af"/><path d="m424.3 322.021-36 180h-192.3v-180c24.901 0 45-20.099 45-45v-75h45c24.901 0 45 20.099 45 45v75z" fill="#ffe6cc"/><path d="m196 412.021v90h192.299l18.001-90z" fill="#ffccb3"/><path d="m298.363 140.292-1.845-45.103 28.007-35.419-43.476-12.217-25.049-37.574v114.654z" fill="#ffbe40"/></g></svg>