<svg id="Capa_1" enable-background="new 0 0 511.335 511.335" height="512" viewBox="0 0 511.335 511.335" width="512" xmlns="http://www.w3.org/2000/svg"><g><ellipse cx="264.466" cy="264.466" fill="#ff6c6c" rx="246.869" ry="246.869" transform="matrix(.707 -.707 .707 .707 -109.545 264.466)"/><path d="m264.465 17.598v493.737c136.124 0 246.869-110.745 246.869-246.869s-110.745-246.868-246.869-246.868z" fill="#e63950"/><ellipse cx="264.466" cy="264.466" fill="#f0f7ff" rx="164.058" ry="164.059" transform="matrix(.986 -.165 .165 .986 -40.071 47.345)"/><path d="m264.465 100.407v328.117c90.462 0 164.059-73.597 164.059-164.059 0-90.461-73.597-164.058-164.059-164.058z" fill="#dfe7f4"/><ellipse cx="264.466" cy="264.466" fill="#ff6c6c" rx="81.248" ry="81.248" transform="matrix(.454 -.891 .891 .454 -91.212 380.126)"/><path d="m264.465 183.218v162.496c44.801 0 81.249-36.447 81.249-81.248s-36.448-81.248-81.249-81.248z" fill="#e63950"/><path d="m182.857 76.933-72.539-72.539c-3.609-3.611-8.809-5.137-13.797-4.051s-9.082 4.635-10.865 9.419l-14.847 39.835 4.241 25.454-25.454-4.241-39.834 14.846c-4.784 1.783-8.333 5.877-9.419 10.865-1.085 4.988.44 10.187 4.051 13.797l72.539 72.539c2.838 2.839 6.664 4.394 10.606 4.394.889 0 1.784-.079 2.676-.24l71.711-13c6.152-1.116 10.968-5.932 12.084-12.084l13-71.711c.877-4.84-.674-9.804-4.153-13.283z" fill="#29376d"/><path d="m275.072 253.859-204.263-204.262-5.759 15.454-15.454 5.759 204.263 204.263c2.929 2.929 6.768 4.393 10.606 4.393 3.839 0 7.678-1.465 10.606-4.393 5.859-5.858 5.859-15.356.001-21.214z" fill="#47568c"/></g></svg>