<svg id="Capa_1" enable-background="new 0 0 512 512" height="512" viewBox="0 0 512 512" width="512" xmlns="http://www.w3.org/2000/svg"><g><g><path d="m466.993 0c-24.5 0-211.333 16.01-211.333 16.01v73.906h256.333v-44.916c0-24.813-20.5-45-45-45z" fill="#488aff"/></g><path d="m104.965 0c-24.79 0-44.958 20.168-44.958 44.958v452.042c0 8.248-6.71 14.958-14.958 14.958v.042h333.111c24.79 0 44.958-20.168 44.958-44.958v-422.042c0-24.813 20.187-45 45-45z" fill="#f5fbff"/><path d="m241.556 0v512h136.604c24.79 0 44.958-20.168 44.958-44.958v-422.042c0-24.813 20.187-45 45-45z" fill="#cae1f9"/><g><path d="m333.171 467v-44.917h-333.164v44.917c0 24.813 20.187 45 45 45h333.164c-24.813 0-45-20.187-45-45z" fill="#f5fbff"/></g><path d="m333.171 467v-44.917h-166.582v89.917h211.582c-24.813 0-45-20.187-45-45z" fill="#cae1f9"/><path d="m104.556 362.404h273.001v30h-273.001z" fill="#50c5ff"/><path d="m104.556 242.153h273v30h-273z" fill="#50c5ff"/><path d="m104.556 302.278h273v30h-273z" fill="#50c5ff"/><g fill="#488aff"><path d="m241.556 362.404h136.001v30h-136.001z"/><path d="m241.556 242.153h136v30h-136z"/><path d="m241.556 302.278h136v30h-136z"/><path d="m273.806 182.029h103.75v30h-103.75z"/><path d="m273.806 121.904h103.75v30h-103.75z"/></g><path d="m241.056 210.648h-135.968v-24.665c0-18.281 7.43-34.514 20.921-45.707 12.21-10.13 28.924-15.709 47.064-15.709s34.854 5.579 47.063 15.71c13.49 11.193 20.92 27.426 20.92 45.707z" fill="#fd4e26"/><path d="m173.072 153.974c-25.038 0-45.407-20.369-45.407-45.407 0-25.037 20.369-45.407 45.407-45.407 25.037 0 45.406 20.369 45.406 45.407.001 25.038-20.369 45.407-45.406 45.407z" fill="#f9c4b9"/><path d="m273.806 61.78h103.75v30h-103.75z" fill="#488aff"/><g><g><path d="m383.916 512c-70.622 0-128.077-57.455-128.077-128.077s57.455-128.077 128.077-128.077 128.077 57.455 128.077 128.077-57.455 128.077-128.077 128.077z" fill="#48568c"/></g></g><path d="m383.916 255.846v256.154c70.622 0 128.077-57.455 128.077-128.077s-57.455-128.077-128.077-128.077z" fill="#2c3b73"/><path d="m370.331 439.615-52.395-52.395 21.212-21.213 31.183 31.183 58.353-58.353 21.213 21.213z" fill="#f5fbff"/><path d="m428.684 338.837-44.768 44.767v42.426l65.981-65.98z" fill="#cae1f9"/></g></svg>