<svg id="Capa_1" enable-background="new 0 0 512 512" height="512" viewBox="0 0 512 512" width="512" xmlns="http://www.w3.org/2000/svg"><g><path d="m91.86 206.239-3.881-14.491-57.964 15.542 3.88 14.48 3.883 14.495 57.964-15.542z" fill="#474f54"/><path d="m95.742 220.723-3.882-14.484-57.965 15.531 3.883 14.495z" fill="#32393f"/><path d="m149.808 190.712-11.644-43.466-72.436 19.409 11.643 43.466 11.648 43.473 72.436-19.409z" fill="#fabe2c"/><path d="m81.917 199.65h74.992v45.006h-74.992z" fill="#ff9100" transform="matrix(.966 -.259 .259 .966 -53.424 38.472)"/><path d="m468.598 105.291-19.499-72.292-72.599 19.501-23.103 55.576 9.771 25.466 17.466 45.519 34.865 18.039 72.602-19.501z" fill="#474f54"/><path d="m415.499 197.1 72.602-19.501-19.503-72.308-105.43 28.251 17.466 45.519z" fill="#32393f"/><path d="m395.986 124.748-19.486-72.248-260.7 69.6 19.511 72.495 19.488 72.406 260.7-69.901z" fill="#ffe666"/><path d="m415.499 197.1-19.513-72.352-260.675 69.847 19.488 72.406z" fill="#fabe2c"/><path d="m48.384 217.888-19.409-72.444-28.975 7.764 19.409 72.444 19.409 72.444 28.975-7.764z" fill="#575f64"/><path d="m28.603 220.493h29.997v74.999h-29.997z" fill="#474f54" transform="matrix(.966 -.259 .259 .966 -65.281 20.073)"/><path d="m483.054 101.418-27.18-101.418-28.975 7.764 27.181 101.418 28.945 103.818 28.975-7.764z" fill="#ffe666"/><path d="m512 205.236-28.946-103.818-28.974 7.764 28.945 103.818z" fill="#fabe2c"/><path d="m385.272 482-107.84-216.68c13.966-7.646 23.568-22.306 23.568-39.32 0-24.814-20.186-45-45-45s-45 20.186-45 45c0 17.014 9.602 31.674 23.568 39.32l-107.84 216.68h-35.728v30h54.272l95.728-192.455v162.455h-30v30h45 45v-30h-30v-162.455l95.728 192.455h54.272v-30z" fill="#474f54"/><path d="m301 482h-30v-162.455l95.728 192.455h54.272v-30h-35.728l-107.84-216.68c13.966-7.646 23.568-22.306 23.568-39.32 0-24.814-20.186-45-45-45v331h45z" fill="#32393f"/><circle cx="256" cy="226" fill="#fabe2c" r="15"/><path d="m271 226c0-8.284-6.716-15-15-15v30c8.284 0 15-6.716 15-15z" fill="#ff9100"/></g></svg>